name C:\Users\u0101727\Documents\MyRepositories\upper-imu-dc\Results\main_tracking\Case_72\kinematics.mot
datacolumns 43
datarows 5
range 3.48000000 3.56000000
endheader 
time	clav_prot	clav_elev	scapula_abduction	scapula_elevation	scapula_upward_rot	scapula_winging	plane_elv	shoulder_elv	axial_rot	TrapeziusScapula_M/activation	TrapeziusScapula_S/activation	TrapeziusScapula_I/activation	TrapeziusClavicle_S/activation	SerratusAnterior_I/activation	SerratusAnterior_M/activation	SerratusAnterior_S/activation	Rhomboideus_S/activation	Rhomboideus_I/activation	LevatorScapulae/activation	Coracobrachialis/activation	DeltoideusClavicle_A/activation	DeltoideusScapula_P/activation	DeltoideusScapula_M/activation	LatissimusDorsi_S/activation	LatissimusDorsi_M/activation	LatissimusDorsi_I/activation	PectoralisMajorClavicle_S/activation	PectoralisMajorThorax_I/activation	PectoralisMajorThorax_M/activation	TeresMajor/activation	Infraspinatus_I/activation	Infraspinatus_S/activation	PectoralisMinor/activation	TeresMinor/activation	Subscapularis_S/activation	Subscapularis_M/activation	Subscapularis_I/activation	Supraspinatus_P/activation	Supraspinatus_A/activation	TRIlong/activation	BIC_long/activation	BIC_brevis/activation	
          3.48000000	        -21.82416655	         -5.03392677	        -11.06134757	         -4.52739715	         12.91744629	          5.61656985	        -19.95266379	         31.58188081	         17.71698276	          0.40781182	          0.51928306	          0.30167042	          0.54236934	          0.51421969	          0.66602517	          0.46813671	          0.50844700	          0.53184697	          0.60454574	          0.43487667	          0.45436248	          0.51872850	          0.58458276	          0.40852824	          0.39192133	          0.46535034	          0.46874252	          0.32820151	          0.41915111	          0.49963619	          0.48874076	          0.50432227	          0.35378398	          0.47625177	          0.45970026	          0.46865412	          0.48114298	          0.47708438	          0.46349457	          0.51130660	          0.46154015	          0.43824244	
          3.50000000	        -22.06998506	         -4.84170413	        -11.22339454	         -4.53417552	         13.45231595	          5.43418301	        -19.76239482	         32.31583873	         16.89881463	          0.40508426	          0.51700352	          0.30291306	          0.54395923	          0.51745477	          0.67015256	          0.46861887	          0.50799158	          0.52843349	          0.60462991	          0.43542241	          0.45676886	          0.51649253	          0.58505382	          0.40559406	          0.38751394	          0.46424639	          0.47126564	          0.32880483	          0.42196228	          0.49571388	          0.48903170	          0.50435538	          0.35278677	          0.47604370	          0.45988751	          0.46810250	          0.47984451	          0.47748156	          0.46463889	          0.50822789	          0.46325538	          0.43959316	
          3.52000000	        -22.30912487	         -4.65342494	        -11.37223178	         -4.54196509	         13.98384003	          5.25153670	        -19.54396087	         33.04963554	         16.11161664	          0.40278749	          0.51422440	          0.30425959	          0.54524365	          0.51972552	          0.67422091	          0.46934310	          0.50732477	          0.52464206	          0.60470479	          0.43569614	          0.45916180	          0.51436626	          0.58640885	          0.40342756	          0.38425322	          0.46302211	          0.47358564	          0.32987188	          0.42494402	          0.49298915	          0.48957608	          0.50367624	          0.35261461	          0.47566168	          0.46047566	          0.46843636	          0.47954566	          0.47761498	          0.46571682	          0.50513011	          0.46487008	          0.44060237	
          3.54000000	        -22.54117324	         -4.47183473	        -11.50998464	         -4.55132853	         14.50616682	          5.07118134	        -19.29914719	         33.78393392	         15.36597364	          0.40062026	          0.51160635	          0.30465488	          0.54630040	          0.52319272	          0.67649454	          0.46971898	          0.50710484	          0.52264162	          0.60440529	          0.43612584	          0.46122087	          0.51226203	          0.58796158	          0.40163008	          0.38163518	          0.46169568	          0.47561441	          0.33153873	          0.42757488	          0.49049584	          0.48789967	          0.50258833	          0.35321036	          0.47531078	          0.46112966	          0.46834381	          0.47920853	          0.47798642	          0.46688456	          0.50256566	          0.46583804	          0.44197587	
          3.56000000	        -22.76664330	         -4.29973467	        -11.63936611	         -4.56342540	         15.01527452	          4.89526750	        -19.03222022	         34.51842127	         14.67146864	          0.39870410	          0.50699960	          0.30870568	          0.54635028	          0.52710068	          0.67879394	          0.47012400	          0.50686003	          0.52258123	          0.60541452	          0.43697598	          0.46339573	          0.51073114	          0.58877991	          0.39974492	          0.37880596	          0.46034910	          0.47715757	          0.33346944	          0.43008204	          0.48812587	          0.48487684	          0.50144666	          0.35451096	          0.47515199	          0.46204928	          0.46812355	          0.47893618	          0.47863687	          0.46781169	          0.49915732	          0.46697762	          0.44396689	
